<svg xmlns="http://www.w3.org/2000/svg" viewBox="0 0 1400 3200" width="1400" height="3200" fill="none">
<rect width="1400" height="3200" fill="#0b0d14"/>
<rect x="60" y="60" width="520" height="40" rx="12" fill="#c7b489" fill-opacity="0.30"/>
<rect x="60" y="130" width="900" height="16" rx="8" fill="#ffffff" fill-opacity="0.08"/>
<rect x="60" y="200" width="1280" height="70" rx="10" fill="#ffffff" fill-opacity="0.06"/>
<g fill="#c7b489" fill-opacity="0.5"><rect x="80" y="226" width="120" height="18" rx="9"/><rect x="360" y="226" width="90" height="18" rx="9"/><rect x="560" y="226" width="90" height="18" rx="9"/><rect x="760" y="226" width="90" height="18" rx="9"/><rect x="960" y="226" width="90" height="18" rx="9"/><rect x="1160" y="226" width="90" height="18" rx="9"/></g>
<rect x="60" y="300" width="1280" height="66" rx="8" fill="#ffffff" fill-opacity="0.05"/><rect x="80" y="324" width="150" height="16" rx="8" fill="#ffffff" fill-opacity="0.22"/><rect x="360" y="324" width="90" height="16" rx="8" fill="#ffffff" fill-opacity="0.16"/><rect x="560" y="324" width="90" height="16" rx="8" fill="#ffffff" fill-opacity="0.16"/><rect x="760" y="324" width="90" height="16" rx="8" fill="#c7b489" fill-opacity="0.4"/><rect x="960" y="324" width="90" height="16" rx="8" fill="#ffffff" fill-opacity="0.16"/><rect x="1160" y="324" width="90" height="16" rx="8" fill="#c7b489" fill-opacity="0.4"/><rect x="60" y="374" width="1280" height="66" rx="8" fill="#ffffff" fill-opacity="0.03"/><rect x="80" y="398" width="150" height="16" rx="8" fill="#ffffff" fill-opacity="0.22"/><rect x="360" y="398" width="90" height="16" rx="8" fill="#ffffff" fill-opacity="0.16"/><rect x="560" y="398" width="90" height="16" rx="8" fill="#ffffff" fill-opacity="0.16"/><rect x="760" y="398" width="90" height="16" rx="8" fill="#c7b489" fill-opacity="0.4"/><rect x="960" y="398" width="90" height="16" rx="8" fill="#ffffff" fill-opacity="0.16"/><rect x="1160" y="398" width="90" height="16" rx="8" fill="#c7b489" fill-opacity="0.4"/><rect x="60" y="448" width="1280" height="66" rx="8" fill="#ffffff" fill-opacity="0.05"/><rect x="80" y="472" width="150" height="16" rx="8" fill="#ffffff" fill-opacity="0.22"/><rect x="360" y="472" width="90" height="16" rx="8" fill="#ffffff" fill-opacity="0.16"/><rect x="560" y="472" width="90" height="16" rx="8" fill="#ffffff" fill-opacity="0.16"/><rect x="760" y="472" width="90" height="16" rx="8" fill="#c7b489" fill-opacity="0.4"/><rect x="960" y="472" width="90" height="16" rx="8" fill="#ffffff" fill-opacity="0.16"/><rect x="1160" y="472" width="90" height="16" rx="8" fill="#c7b489" fill-opacity="0.4"/><rect x="60" y="522" width="1280" height="66" rx="8" fill="#ffffff" fill-opacity="0.03"/><rect x="80" y="546" width="150" height="16" rx="8" fill="#ffffff" fill-opacity="0.22"/><rect x="360" y="546" width="90" height="16" rx="8" fill="#ffffff" fill-opacity="0.16"/><rect x="560" y="546" width="90" height="16" rx="8" fill="#ffffff" fill-opacity="0.16"/><rect x="760" y="546" width="90" height="16" rx="8" fill="#c7b489" fill-opacity="0.4"/><rect x="960" y="546" width="90" height="16" rx="8" fill="#ffffff" fill-opacity="0.16"/><rect x="1160" y="546" width="90" height="16" rx="8" fill="#c7b489" fill-opacity="0.4"/><rect x="60" y="596" width="1280" height="66" rx="8" fill="#ffffff" fill-opacity="0.05"/><rect x="80" y="620" width="150" height="16" rx="8" fill="#ffffff" fill-opacity="0.22"/><rect x="360" y="620" width="90" height="16" rx="8" fill="#ffffff" fill-opacity="0.16"/><rect x="560" y="620" width="90" height="16" rx="8" fill="#ffffff" fill-opacity="0.16"/><rect x="760" y="620" width="90" height="16" rx="8" fill="#c7b489" fill-opacity="0.4"/><rect x="960" y="620" width="90" height="16" rx="8" fill="#ffffff" fill-opacity="0.16"/><rect x="1160" y="620" width="90" height="16" rx="8" fill="#c7b489" fill-opacity="0.4"/><rect x="60" y="670" width="1280" height="66" rx="8" fill="#ffffff" fill-opacity="0.03"/><rect x="80" y="694" width="150" height="16" rx="8" fill="#ffffff" fill-opacity="0.22"/><rect x="360" y="694" width="90" height="16" rx="8" fill="#ffffff" fill-opacity="0.16"/><rect x="560" y="694" width="90" height="16" rx="8" fill="#ffffff" fill-opacity="0.16"/><rect x="760" y="694" width="90" height="16" rx="8" fill="#c7b489" fill-opacity="0.4"/><rect x="960" y="694" width="90" height="16" rx="8" fill="#ffffff" fill-opacity="0.16"/><rect x="1160" y="694" width="90" height="16" rx="8" fill="#c7b489" fill-opacity="0.4"/><rect x="60" y="744" width="1280" height="66" rx="8" fill="#ffffff" fill-opacity="0.05"/><rect x="80" y="768" width="150" height="16" rx="8" fill="#ffffff" fill-opacity="0.22"/><rect x="360" y="768" width="90" height="16" rx="8" fill="#ffffff" fill-opacity="0.16"/><rect x="560" y="768" width="90" height="16" rx="8" fill="#ffffff" fill-opacity="0.16"/><rect x="760" y="768" width="90" height="16" rx="8" fill="#c7b489" fill-opacity="0.4"/><rect x="960" y="768" width="90" height="16" rx="8" fill="#ffffff" fill-opacity="0.16"/><rect x="1160" y="768" width="90" height="16" rx="8" fill="#c7b489" fill-opacity="0.4"/><rect x="60" y="818" width="1280" height="66" rx="8" fill="#ffffff" fill-opacity="0.03"/><rect x="80" y="842" width="150" height="16" rx="8" fill="#ffffff" fill-opacity="0.22"/><rect x="360" y="842" width="90" height="16" rx="8" fill="#ffffff" fill-opacity="0.16"/><rect x="560" y="842" width="90" height="16" rx="8" fill="#ffffff" fill-opacity="0.16"/><rect x="760" y="842" width="90" height="16" rx="8" fill="#c7b489" fill-opacity="0.4"/><rect x="960" y="842" width="90" height="16" rx="8" fill="#ffffff" fill-opacity="0.16"/><rect x="1160" y="842" width="90" height="16" rx="8" fill="#c7b489" fill-opacity="0.4"/><rect x="60" y="892" width="1280" height="66" rx="8" fill="#ffffff" fill-opacity="0.05"/><rect x="80" y="916" width="150" height="16" rx="8" fill="#ffffff" fill-opacity="0.22"/><rect x="360" y="916" width="90" height="16" rx="8" fill="#ffffff" fill-opacity="0.16"/><rect x="560" y="916" width="90" height="16" rx="8" fill="#ffffff" fill-opacity="0.16"/><rect x="760" y="916" width="90" height="16" rx="8" fill="#c7b489" fill-opacity="0.4"/><rect x="960" y="916" width="90" height="16" rx="8" fill="#ffffff" fill-opacity="0.16"/><rect x="1160" y="916" width="90" height="16" rx="8" fill="#c7b489" fill-opacity="0.4"/><rect x="60" y="966" width="1280" height="66" rx="8" fill="#ffffff" fill-opacity="0.03"/><rect x="80" y="990" width="150" height="16" rx="8" fill="#ffffff" fill-opacity="0.22"/><rect x="360" y="990" width="90" height="16" rx="8" fill="#ffffff" fill-opacity="0.16"/><rect x="560" y="990" width="90" height="16" rx="8" fill="#ffffff" fill-opacity="0.16"/><rect x="760" y="990" width="90" height="16" rx="8" fill="#c7b489" fill-opacity="0.4"/><rect x="960" y="990" width="90" height="16" rx="8" fill="#ffffff" fill-opacity="0.16"/><rect x="1160" y="990" width="90" height="16" rx="8" fill="#c7b489" fill-opacity="0.4"/><rect x="60" y="1040" width="1280" height="66" rx="8" fill="#ffffff" fill-opacity="0.05"/><rect x="80" y="1064" width="150" height="16" rx="8" fill="#ffffff" fill-opacity="0.22"/><rect x="360" y="1064" width="90" height="16" rx="8" fill="#ffffff" fill-opacity="0.16"/><rect x="560" y="1064" width="90" height="16" rx="8" fill="#ffffff" fill-opacity="0.16"/><rect x="760" y="1064" width="90" height="16" rx="8" fill="#c7b489" fill-opacity="0.4"/><rect x="960" y="1064" width="90" height="16" rx="8" fill="#ffffff" fill-opacity="0.16"/><rect x="1160" y="1064" width="90" height="16" rx="8" fill="#c7b489" fill-opacity="0.4"/><rect x="60" y="1114" width="1280" height="66" rx="8" fill="#ffffff" fill-opacity="0.03"/><rect x="80" y="1138" width="150" height="16" rx="8" fill="#ffffff" fill-opacity="0.22"/><rect x="360" y="1138" width="90" height="16" rx="8" fill="#ffffff" fill-opacity="0.16"/><rect x="560" y="1138" width="90" height="16" rx="8" fill="#ffffff" fill-opacity="0.16"/><rect x="760" y="1138" width="90" height="16" rx="8" fill="#c7b489" fill-opacity="0.4"/><rect x="960" y="1138" width="90" height="16" rx="8" fill="#ffffff" fill-opacity="0.16"/><rect x="1160" y="1138" width="90" height="16" rx="8" fill="#c7b489" fill-opacity="0.4"/><rect x="60" y="1188" width="1280" height="66" rx="8" fill="#ffffff" fill-opacity="0.05"/><rect x="80" y="1212" width="150" height="16" rx="8" fill="#ffffff" fill-opacity="0.22"/><rect x="360" y="1212" width="90" height="16" rx="8" fill="#ffffff" fill-opacity="0.16"/><rect x="560" y="1212" width="90" height="16" rx="8" fill="#ffffff" fill-opacity="0.16"/><rect x="760" y="1212" width="90" height="16" rx="8" fill="#c7b489" fill-opacity="0.4"/><rect x="960" y="1212" width="90" height="16" rx="8" fill="#ffffff" fill-opacity="0.16"/><rect x="1160" y="1212" width="90" height="16" rx="8" fill="#c7b489" fill-opacity="0.4"/><rect x="60" y="1262" width="1280" height="66" rx="8" fill="#ffffff" fill-opacity="0.03"/><rect x="80" y="1286" width="150" height="16" rx="8" fill="#ffffff" fill-opacity="0.22"/><rect x="360" y="1286" width="90" height="16" rx="8" fill="#ffffff" fill-opacity="0.16"/><rect x="560" y="1286" width="90" height="16" rx="8" fill="#ffffff" fill-opacity="0.16"/><rect x="760" y="1286" width="90" height="16" rx="8" fill="#c7b489" fill-opacity="0.4"/><rect x="960" y="1286" width="90" height="16" rx="8" fill="#ffffff" fill-opacity="0.16"/><rect x="1160" y="1286" width="90" height="16" rx="8" fill="#c7b489" fill-opacity="0.4"/><rect x="60" y="1336" width="1280" height="66" rx="8" fill="#ffffff" fill-opacity="0.05"/><rect x="80" y="1360" width="150" height="16" rx="8" fill="#ffffff" fill-opacity="0.22"/><rect x="360" y="1360" width="90" height="16" rx="8" fill="#ffffff" fill-opacity="0.16"/><rect x="560" y="1360" width="90" height="16" rx="8" fill="#ffffff" fill-opacity="0.16"/><rect x="760" y="1360" width="90" height="16" rx="8" fill="#c7b489" fill-opacity="0.4"/><rect x="960" y="1360" width="90" height="16" rx="8" fill="#ffffff" fill-opacity="0.16"/><rect x="1160" y="1360" width="90" height="16" rx="8" fill="#c7b489" fill-opacity="0.4"/><rect x="60" y="1410" width="1280" height="66" rx="8" fill="#ffffff" fill-opacity="0.03"/><rect x="80" y="1434" width="150" height="16" rx="8" fill="#ffffff" fill-opacity="0.22"/><rect x="360" y="1434" width="90" height="16" rx="8" fill="#ffffff" fill-opacity="0.16"/><rect x="560" y="1434" width="90" height="16" rx="8" fill="#ffffff" fill-opacity="0.16"/><rect x="760" y="1434" width="90" height="16" rx="8" fill="#c7b489" fill-opacity="0.4"/><rect x="960" y="1434" width="90" height="16" rx="8" fill="#ffffff" fill-opacity="0.16"/><rect x="1160" y="1434" width="90" height="16" rx="8" fill="#c7b489" fill-opacity="0.4"/><rect x="60" y="1484" width="1280" height="66" rx="8" fill="#ffffff" fill-opacity="0.05"/><rect x="80" y="1508" width="150" height="16" rx="8" fill="#ffffff" fill-opacity="0.22"/><rect x="360" y="1508" width="90" height="16" rx="8" fill="#ffffff" fill-opacity="0.16"/><rect x="560" y="1508" width="90" height="16" rx="8" fill="#ffffff" fill-opacity="0.16"/><rect x="760" y="1508" width="90" height="16" rx="8" fill="#c7b489" fill-opacity="0.4"/><rect x="960" y="1508" width="90" height="16" rx="8" fill="#ffffff" fill-opacity="0.16"/><rect x="1160" y="1508" width="90" height="16" rx="8" fill="#c7b489" fill-opacity="0.4"/><rect x="60" y="1558" width="1280" height="66" rx="8" fill="#ffffff" fill-opacity="0.03"/><rect x="80" y="1582" width="150" height="16" rx="8" fill="#ffffff" fill-opacity="0.22"/><rect x="360" y="1582" width="90" height="16" rx="8" fill="#ffffff" fill-opacity="0.16"/><rect x="560" y="1582" width="90" height="16" rx="8" fill="#ffffff" fill-opacity="0.16"/><rect x="760" y="1582" width="90" height="16" rx="8" fill="#c7b489" fill-opacity="0.4"/><rect x="960" y="1582" width="90" height="16" rx="8" fill="#ffffff" fill-opacity="0.16"/><rect x="1160" y="1582" width="90" height="16" rx="8" fill="#c7b489" fill-opacity="0.4"/><rect x="60" y="1632" width="1280" height="66" rx="8" fill="#ffffff" fill-opacity="0.05"/><rect x="80" y="1656" width="150" height="16" rx="8" fill="#ffffff" fill-opacity="0.22"/><rect x="360" y="1656" width="90" height="16" rx="8" fill="#ffffff" fill-opacity="0.16"/><rect x="560" y="1656" width="90" height="16" rx="8" fill="#ffffff" fill-opacity="0.16"/><rect x="760" y="1656" width="90" height="16" rx="8" fill="#c7b489" fill-opacity="0.4"/><rect x="960" y="1656" width="90" height="16" rx="8" fill="#ffffff" fill-opacity="0.16"/><rect x="1160" y="1656" width="90" height="16" rx="8" fill="#c7b489" fill-opacity="0.4"/><rect x="60" y="1706" width="1280" height="66" rx="8" fill="#ffffff" fill-opacity="0.03"/><rect x="80" y="1730" width="150" height="16" rx="8" fill="#ffffff" fill-opacity="0.22"/><rect x="360" y="1730" width="90" height="16" rx="8" fill="#ffffff" fill-opacity="0.16"/><rect x="560" y="1730" width="90" height="16" rx="8" fill="#ffffff" fill-opacity="0.16"/><rect x="760" y="1730" width="90" height="16" rx="8" fill="#c7b489" fill-opacity="0.4"/><rect x="960" y="1730" width="90" height="16" rx="8" fill="#ffffff" fill-opacity="0.16"/><rect x="1160" y="1730" width="90" height="16" rx="8" fill="#c7b489" fill-opacity="0.4"/><rect x="60" y="1780" width="1280" height="66" rx="8" fill="#ffffff" fill-opacity="0.05"/><rect x="80" y="1804" width="150" height="16" rx="8" fill="#ffffff" fill-opacity="0.22"/><rect x="360" y="1804" width="90" height="16" rx="8" fill="#ffffff" fill-opacity="0.16"/><rect x="560" y="1804" width="90" height="16" rx="8" fill="#ffffff" fill-opacity="0.16"/><rect x="760" y="1804" width="90" height="16" rx="8" fill="#c7b489" fill-opacity="0.4"/><rect x="960" y="1804" width="90" height="16" rx="8" fill="#ffffff" fill-opacity="0.16"/><rect x="1160" y="1804" width="90" height="16" rx="8" fill="#c7b489" fill-opacity="0.4"/><rect x="60" y="1854" width="1280" height="66" rx="8" fill="#ffffff" fill-opacity="0.03"/><rect x="80" y="1878" width="150" height="16" rx="8" fill="#ffffff" fill-opacity="0.22"/><rect x="360" y="1878" width="90" height="16" rx="8" fill="#ffffff" fill-opacity="0.16"/><rect x="560" y="1878" width="90" height="16" rx="8" fill="#ffffff" fill-opacity="0.16"/><rect x="760" y="1878" width="90" height="16" rx="8" fill="#c7b489" fill-opacity="0.4"/><rect x="960" y="1878" width="90" height="16" rx="8" fill="#ffffff" fill-opacity="0.16"/><rect x="1160" y="1878" width="90" height="16" rx="8" fill="#c7b489" fill-opacity="0.4"/><rect x="60" y="1928" width="1280" height="66" rx="8" fill="#ffffff" fill-opacity="0.05"/><rect x="80" y="1952" width="150" height="16" rx="8" fill="#ffffff" fill-opacity="0.22"/><rect x="360" y="1952" width="90" height="16" rx="8" fill="#ffffff" fill-opacity="0.16"/><rect x="560" y="1952" width="90" height="16" rx="8" fill="#ffffff" fill-opacity="0.16"/><rect x="760" y="1952" width="90" height="16" rx="8" fill="#c7b489" fill-opacity="0.4"/><rect x="960" y="1952" width="90" height="16" rx="8" fill="#ffffff" fill-opacity="0.16"/><rect x="1160" y="1952" width="90" height="16" rx="8" fill="#c7b489" fill-opacity="0.4"/><rect x="60" y="2002" width="1280" height="66" rx="8" fill="#ffffff" fill-opacity="0.03"/><rect x="80" y="2026" width="150" height="16" rx="8" fill="#ffffff" fill-opacity="0.22"/><rect x="360" y="2026" width="90" height="16" rx="8" fill="#ffffff" fill-opacity="0.16"/><rect x="560" y="2026" width="90" height="16" rx="8" fill="#ffffff" fill-opacity="0.16"/><rect x="760" y="2026" width="90" height="16" rx="8" fill="#c7b489" fill-opacity="0.4"/><rect x="960" y="2026" width="90" height="16" rx="8" fill="#ffffff" fill-opacity="0.16"/><rect x="1160" y="2026" width="90" height="16" rx="8" fill="#c7b489" fill-opacity="0.4"/><rect x="60" y="2076" width="1280" height="66" rx="8" fill="#ffffff" fill-opacity="0.05"/><rect x="80" y="2100" width="150" height="16" rx="8" fill="#ffffff" fill-opacity="0.22"/><rect x="360" y="2100" width="90" height="16" rx="8" fill="#ffffff" fill-opacity="0.16"/><rect x="560" y="2100" width="90" height="16" rx="8" fill="#ffffff" fill-opacity="0.16"/><rect x="760" y="2100" width="90" height="16" rx="8" fill="#c7b489" fill-opacity="0.4"/><rect x="960" y="2100" width="90" height="16" rx="8" fill="#ffffff" fill-opacity="0.16"/><rect x="1160" y="2100" width="90" height="16" rx="8" fill="#c7b489" fill-opacity="0.4"/><rect x="60" y="2150" width="1280" height="66" rx="8" fill="#ffffff" fill-opacity="0.03"/><rect x="80" y="2174" width="150" height="16" rx="8" fill="#ffffff" fill-opacity="0.22"/><rect x="360" y="2174" width="90" height="16" rx="8" fill="#ffffff" fill-opacity="0.16"/><rect x="560" y="2174" width="90" height="16" rx="8" fill="#ffffff" fill-opacity="0.16"/><rect x="760" y="2174" width="90" height="16" rx="8" fill="#c7b489" fill-opacity="0.4"/><rect x="960" y="2174" width="90" height="16" rx="8" fill="#ffffff" fill-opacity="0.16"/><rect x="1160" y="2174" width="90" height="16" rx="8" fill="#c7b489" fill-opacity="0.4"/><rect x="60" y="2224" width="1280" height="66" rx="8" fill="#ffffff" fill-opacity="0.05"/><rect x="80" y="2248" width="150" height="16" rx="8" fill="#ffffff" fill-opacity="0.22"/><rect x="360" y="2248" width="90" height="16" rx="8" fill="#ffffff" fill-opacity="0.16"/><rect x="560" y="2248" width="90" height="16" rx="8" fill="#ffffff" fill-opacity="0.16"/><rect x="760" y="2248" width="90" height="16" rx="8" fill="#c7b489" fill-opacity="0.4"/><rect x="960" y="2248" width="90" height="16" rx="8" fill="#ffffff" fill-opacity="0.16"/><rect x="1160" y="2248" width="90" height="16" rx="8" fill="#c7b489" fill-opacity="0.4"/><rect x="60" y="2298" width="1280" height="66" rx="8" fill="#ffffff" fill-opacity="0.03"/><rect x="80" y="2322" width="150" height="16" rx="8" fill="#ffffff" fill-opacity="0.22"/><rect x="360" y="2322" width="90" height="16" rx="8" fill="#ffffff" fill-opacity="0.16"/><rect x="560" y="2322" width="90" height="16" rx="8" fill="#ffffff" fill-opacity="0.16"/><rect x="760" y="2322" width="90" height="16" rx="8" fill="#c7b489" fill-opacity="0.4"/><rect x="960" y="2322" width="90" height="16" rx="8" fill="#ffffff" fill-opacity="0.16"/><rect x="1160" y="2322" width="90" height="16" rx="8" fill="#c7b489" fill-opacity="0.4"/><rect x="60" y="2372" width="1280" height="66" rx="8" fill="#ffffff" fill-opacity="0.05"/><rect x="80" y="2396" width="150" height="16" rx="8" fill="#ffffff" fill-opacity="0.22"/><rect x="360" y="2396" width="90" height="16" rx="8" fill="#ffffff" fill-opacity="0.16"/><rect x="560" y="2396" width="90" height="16" rx="8" fill="#ffffff" fill-opacity="0.16"/><rect x="760" y="2396" width="90" height="16" rx="8" fill="#c7b489" fill-opacity="0.4"/><rect x="960" y="2396" width="90" height="16" rx="8" fill="#ffffff" fill-opacity="0.16"/><rect x="1160" y="2396" width="90" height="16" rx="8" fill="#c7b489" fill-opacity="0.4"/><rect x="60" y="2446" width="1280" height="66" rx="8" fill="#ffffff" fill-opacity="0.03"/><rect x="80" y="2470" width="150" height="16" rx="8" fill="#ffffff" fill-opacity="0.22"/><rect x="360" y="2470" width="90" height="16" rx="8" fill="#ffffff" fill-opacity="0.16"/><rect x="560" y="2470" width="90" height="16" rx="8" fill="#ffffff" fill-opacity="0.16"/><rect x="760" y="2470" width="90" height="16" rx="8" fill="#c7b489" fill-opacity="0.4"/><rect x="960" y="2470" width="90" height="16" rx="8" fill="#ffffff" fill-opacity="0.16"/><rect x="1160" y="2470" width="90" height="16" rx="8" fill="#c7b489" fill-opacity="0.4"/><rect x="60" y="2520" width="1280" height="66" rx="8" fill="#ffffff" fill-opacity="0.05"/><rect x="80" y="2544" width="150" height="16" rx="8" fill="#ffffff" fill-opacity="0.22"/><rect x="360" y="2544" width="90" height="16" rx="8" fill="#ffffff" fill-opacity="0.16"/><rect x="560" y="2544" width="90" height="16" rx="8" fill="#ffffff" fill-opacity="0.16"/><rect x="760" y="2544" width="90" height="16" rx="8" fill="#c7b489" fill-opacity="0.4"/><rect x="960" y="2544" width="90" height="16" rx="8" fill="#ffffff" fill-opacity="0.16"/><rect x="1160" y="2544" width="90" height="16" rx="8" fill="#c7b489" fill-opacity="0.4"/><rect x="60" y="2594" width="1280" height="66" rx="8" fill="#ffffff" fill-opacity="0.03"/><rect x="80" y="2618" width="150" height="16" rx="8" fill="#ffffff" fill-opacity="0.22"/><rect x="360" y="2618" width="90" height="16" rx="8" fill="#ffffff" fill-opacity="0.16"/><rect x="560" y="2618" width="90" height="16" rx="8" fill="#ffffff" fill-opacity="0.16"/><rect x="760" y="2618" width="90" height="16" rx="8" fill="#c7b489" fill-opacity="0.4"/><rect x="960" y="2618" width="90" height="16" rx="8" fill="#ffffff" fill-opacity="0.16"/><rect x="1160" y="2618" width="90" height="16" rx="8" fill="#c7b489" fill-opacity="0.4"/><rect x="60" y="2668" width="1280" height="66" rx="8" fill="#ffffff" fill-opacity="0.05"/><rect x="80" y="2692" width="150" height="16" rx="8" fill="#ffffff" fill-opacity="0.22"/><rect x="360" y="2692" width="90" height="16" rx="8" fill="#ffffff" fill-opacity="0.16"/><rect x="560" y="2692" width="90" height="16" rx="8" fill="#ffffff" fill-opacity="0.16"/><rect x="760" y="2692" width="90" height="16" rx="8" fill="#c7b489" fill-opacity="0.4"/><rect x="960" y="2692" width="90" height="16" rx="8" fill="#ffffff" fill-opacity="0.16"/><rect x="1160" y="2692" width="90" height="16" rx="8" fill="#c7b489" fill-opacity="0.4"/><rect x="60" y="2742" width="1280" height="66" rx="8" fill="#ffffff" fill-opacity="0.03"/><rect x="80" y="2766" width="150" height="16" rx="8" fill="#ffffff" fill-opacity="0.22"/><rect x="360" y="2766" width="90" height="16" rx="8" fill="#ffffff" fill-opacity="0.16"/><rect x="560" y="2766" width="90" height="16" rx="8" fill="#ffffff" fill-opacity="0.16"/><rect x="760" y="2766" width="90" height="16" rx="8" fill="#c7b489" fill-opacity="0.4"/><rect x="960" y="2766" width="90" height="16" rx="8" fill="#ffffff" fill-opacity="0.16"/><rect x="1160" y="2766" width="90" height="16" rx="8" fill="#c7b489" fill-opacity="0.4"/><rect x="60" y="2816" width="1280" height="66" rx="8" fill="#ffffff" fill-opacity="0.05"/><rect x="80" y="2840" width="150" height="16" rx="8" fill="#ffffff" fill-opacity="0.22"/><rect x="360" y="2840" width="90" height="16" rx="8" fill="#ffffff" fill-opacity="0.16"/><rect x="560" y="2840" width="90" height="16" rx="8" fill="#ffffff" fill-opacity="0.16"/><rect x="760" y="2840" width="90" height="16" rx="8" fill="#c7b489" fill-opacity="0.4"/><rect x="960" y="2840" width="90" height="16" rx="8" fill="#ffffff" fill-opacity="0.16"/><rect x="1160" y="2840" width="90" height="16" rx="8" fill="#c7b489" fill-opacity="0.4"/><rect x="60" y="2890" width="1280" height="66" rx="8" fill="#ffffff" fill-opacity="0.03"/><rect x="80" y="2914" width="150" height="16" rx="8" fill="#ffffff" fill-opacity="0.22"/><rect x="360" y="2914" width="90" height="16" rx="8" fill="#ffffff" fill-opacity="0.16"/><rect x="560" y="2914" width="90" height="16" rx="8" fill="#ffffff" fill-opacity="0.16"/><rect x="760" y="2914" width="90" height="16" rx="8" fill="#c7b489" fill-opacity="0.4"/><rect x="960" y="2914" width="90" height="16" rx="8" fill="#ffffff" fill-opacity="0.16"/><rect x="1160" y="2914" width="90" height="16" rx="8" fill="#c7b489" fill-opacity="0.4"/><rect x="60" y="2964" width="1280" height="66" rx="8" fill="#ffffff" fill-opacity="0.05"/><rect x="80" y="2988" width="150" height="16" rx="8" fill="#ffffff" fill-opacity="0.22"/><rect x="360" y="2988" width="90" height="16" rx="8" fill="#ffffff" fill-opacity="0.16"/><rect x="560" y="2988" width="90" height="16" rx="8" fill="#ffffff" fill-opacity="0.16"/><rect x="760" y="2988" width="90" height="16" rx="8" fill="#c7b489" fill-opacity="0.4"/><rect x="960" y="2988" width="90" height="16" rx="8" fill="#ffffff" fill-opacity="0.16"/><rect x="1160" y="2988" width="90" height="16" rx="8" fill="#c7b489" fill-opacity="0.4"/><rect x="60" y="3038" width="1280" height="66" rx="8" fill="#ffffff" fill-opacity="0.03"/><rect x="80" y="3062" width="150" height="16" rx="8" fill="#ffffff" fill-opacity="0.22"/><rect x="360" y="3062" width="90" height="16" rx="8" fill="#ffffff" fill-opacity="0.16"/><rect x="560" y="3062" width="90" height="16" rx="8" fill="#ffffff" fill-opacity="0.16"/><rect x="760" y="3062" width="90" height="16" rx="8" fill="#c7b489" fill-opacity="0.4"/><rect x="960" y="3062" width="90" height="16" rx="8" fill="#ffffff" fill-opacity="0.16"/><rect x="1160" y="3062" width="90" height="16" rx="8" fill="#c7b489" fill-opacity="0.4"/>
</svg>